<svg width="294" height="110" viewBox="0 0 294 110" fill="none" xmlns="http://www.w3.org/2000/svg">
    <path d="M11.8097 38.7147C11.4683 40.9902 11.2977 42.9813 11.2977 44.688C11.3546 46.3947 11.639 47.8169 12.151 48.9547C12.663 50.0924 13.431 50.9458 14.455 51.5147C15.479 52.0836 16.8159 52.368 18.4657 52.368C19.8879 52.368 21.1963 52.1689 22.391 51.7707C23.6426 51.3724 24.5812 51.088 25.207 50.9173C25.2639 51.9413 25.2923 52.9653 25.2923 53.9893C25.2923 55.0133 25.3492 56.0373 25.463 57.0613C25.1786 57.1751 24.7519 57.3173 24.183 57.488C23.671 57.6587 23.0168 57.8293 22.2203 58C21.4808 58.2276 20.599 58.4267 19.575 58.5973C18.551 58.8249 17.4132 58.9387 16.1617 58.9387C10.871 58.9387 7.14478 57.2889 4.983 53.9893C2.87811 50.6898 2.30922 45.5982 3.27633 38.7147C4.24344 31.7742 6.263 26.6827 9.335 23.44C12.407 20.1973 16.5883 18.576 21.879 18.576C23.1306 18.576 24.2399 18.6613 25.207 18.832C26.1741 19.0027 26.999 19.1733 27.6817 19.344C28.4212 19.5147 29.0186 19.7138 29.4737 19.9413C29.9857 20.1689 30.3554 20.3111 30.583 20.368L28.6203 26.512C27.9946 26.3413 27.1128 26.0569 25.975 25.6587C24.8941 25.2604 23.6994 25.0613 22.391 25.0613C18.9777 25.0613 16.503 26.1991 14.967 28.4747C13.431 30.6933 12.3786 34.1067 11.8097 38.7147ZM45.9262 52.0267C46.8933 52.0267 47.8319 51.7422 48.7422 51.1733C49.7093 50.5476 50.4773 49.8933 51.0462 49.2107L53.1795 33.5093C52.6675 33.4524 52.0986 33.424 51.4728 33.424C50.9039 33.3671 50.2782 33.3387 49.5955 33.3387C47.6613 33.3387 46.1253 34.0213 44.9875 35.3867C43.9066 36.752 43.1102 39.2267 42.5982 42.8107C42.1431 46.3378 42.1715 48.7556 42.6835 50.064C43.2524 51.3724 44.3333 52.0267 45.9262 52.0267ZM57.7022 58H51.0462V54.416C49.9084 55.44 48.5431 56.4356 46.9502 57.4027C45.3573 58.3129 43.5653 58.768 41.5742 58.768C40.3226 58.768 39.1279 58.4836 37.9902 57.9147C36.9093 57.3458 36.0275 56.464 35.3448 55.2693C34.6622 54.0178 34.2071 52.4249 33.9795 50.4907C33.7519 48.5564 33.8373 46.224 34.2355 43.4933C34.6337 40.4782 35.3164 37.9467 36.2835 35.8987C37.2506 33.8507 38.3884 32.2009 39.6968 30.9493C41.0053 29.6409 42.4559 28.7022 44.0488 28.1333C45.6417 27.5644 47.2346 27.28 48.8275 27.28C50.8755 27.28 53.0373 27.3938 55.3128 27.6213C57.6453 27.8489 59.8355 28.1618 61.8835 28.56L57.7022 58ZM74.1847 38.7147C73.8433 40.9902 73.6727 42.9813 73.6727 44.688C73.7296 46.3947 74.014 47.8169 74.526 48.9547C75.038 50.0924 75.806 50.9458 76.83 51.5147C77.854 52.0836 79.1909 52.368 80.8407 52.368C82.2629 52.368 83.5713 52.1689 84.766 51.7707C86.0176 51.3724 86.9562 51.088 87.582 50.9173C87.6389 51.9413 87.6673 52.9653 87.6673 53.9893C87.6673 55.0133 87.7242 56.0373 87.838 57.0613C87.5536 57.1751 87.1269 57.3173 86.558 57.488C86.046 57.6587 85.3918 57.8293 84.5953 58C83.8558 58.2276 82.974 58.4267 81.95 58.5973C80.926 58.8249 79.7882 58.9387 78.5367 58.9387C73.246 58.9387 69.5198 57.2889 67.358 53.9893C65.2531 50.6898 64.6842 45.5982 65.6513 38.7147C66.6184 31.7742 68.638 26.6827 71.71 23.44C74.782 20.1973 78.9633 18.576 84.254 18.576C85.5056 18.576 86.6149 18.6613 87.582 18.832C88.5491 19.0027 89.374 19.1733 90.0567 19.344C90.7962 19.5147 91.3936 19.7138 91.8487 19.9413C92.3607 20.1689 92.7304 20.3111 92.958 20.368L90.9953 26.512C90.3696 26.3413 89.4878 26.0569 88.35 25.6587C87.2691 25.2604 86.0744 25.0613 84.766 25.0613C81.3527 25.0613 78.878 26.1991 77.342 28.4747C75.806 30.6933 74.7536 34.1067 74.1847 38.7147ZM110.264 32.7413C109.24 32.7413 108.187 33.3102 107.106 34.448C106.082 35.5289 105.371 37.4916 104.973 40.336H112.994C113.393 37.4347 113.307 35.4436 112.739 34.3627C112.17 33.2818 111.345 32.7413 110.264 32.7413ZM117.602 55.8667C117.375 56.0373 116.948 56.2933 116.323 56.6347C115.754 56.9191 114.986 57.232 114.018 57.5733C113.108 57.8578 112.027 58.1138 110.776 58.3413C109.581 58.6258 108.273 58.768 106.851 58.768C105.201 58.768 103.636 58.4836 102.157 57.9147C100.735 57.3458 99.5403 56.464 98.5732 55.2693C97.6629 54.0178 97.0087 52.4533 96.6105 50.576C96.2123 48.6418 96.2123 46.3662 96.6105 43.7493C97.0087 40.848 97.6629 38.3733 98.5732 36.3253C99.5403 34.2773 100.65 32.5707 101.901 31.2053C103.21 29.84 104.632 28.816 106.168 28.1333C107.761 27.4507 109.41 27.1093 111.117 27.1093C112.767 27.1093 114.246 27.3938 115.555 27.9627C116.863 28.4747 117.944 29.2996 118.797 30.4373C119.65 31.5751 120.248 33.0258 120.589 34.7893C120.93 36.5529 120.93 38.6862 120.589 41.1893C120.418 42.2702 120.219 43.2089 119.992 44.0053C119.821 44.7449 119.679 45.1716 119.565 45.2853H104.29C103.892 47.9022 104.177 49.808 105.144 51.0027C106.168 52.1404 107.533 52.7093 109.24 52.7093C109.979 52.7093 110.719 52.6524 111.458 52.5387C112.255 52.368 112.966 52.1689 113.592 51.9413C114.274 51.7138 114.872 51.4862 115.384 51.2587C115.896 51.0311 116.351 50.8036 116.749 50.576L117.602 55.8667ZM125.646 51.088C125.817 51.1449 126.13 51.2871 126.585 51.5147C127.04 51.7422 127.552 51.9698 128.121 52.1973C128.747 52.368 129.373 52.5387 129.998 52.7093C130.681 52.88 131.364 52.9653 132.047 52.9653C133.241 52.9653 134.151 52.7947 134.777 52.4533C135.46 52.0551 135.886 51.2871 136.057 50.1493C136.171 49.4098 136 48.7271 135.545 48.1013C135.09 47.4187 134.493 46.7644 133.753 46.1387C133.071 45.5129 132.303 44.8871 131.449 44.2613C130.596 43.5787 129.828 42.8391 129.145 42.0427C128.462 41.1893 127.922 40.2507 127.524 39.2267C127.126 38.2027 127.012 37.008 127.182 35.6427C127.581 32.9689 128.747 30.8924 130.681 29.4133C132.672 27.8773 135.318 27.1093 138.617 27.1093C140.608 27.1093 142.201 27.28 143.396 27.6213C144.647 27.9058 145.529 28.1333 146.041 28.304L144.847 34.1067C144.391 34.0498 143.595 33.8507 142.457 33.5093C141.376 33.168 140.21 32.9973 138.958 32.9973C136.569 32.9973 135.232 33.7938 134.948 35.3867C134.834 36.1262 135.005 36.8089 135.46 37.4347C135.972 38.0036 136.598 38.6009 137.337 39.2267C138.077 39.7956 138.902 40.4213 139.812 41.104C140.722 41.7298 141.547 42.4409 142.286 43.2373C143.026 44.0338 143.595 44.9724 143.993 46.0533C144.391 47.0773 144.477 48.3004 144.249 49.7227C144.135 50.9742 143.794 52.1404 143.225 53.2213C142.656 54.3022 141.888 55.2693 140.921 56.1227C140.011 56.9191 138.873 57.5449 137.508 58C136.142 58.512 134.521 58.768 132.644 58.768C131.392 58.768 130.254 58.6827 129.23 58.512C128.263 58.3413 127.382 58.1138 126.585 57.8293C125.846 57.5449 125.191 57.2889 124.622 57.0613C124.11 56.7769 123.741 56.5493 123.513 56.3787L125.646 51.088ZM166.547 27.792L165.865 33.5947H159.294L157.246 48.1013C157.018 49.4098 157.018 50.3769 157.246 51.0027C157.474 51.6284 158.071 51.9413 159.038 51.9413C159.948 51.9413 160.745 51.8276 161.427 51.6C162.11 51.3156 162.565 51.1449 162.793 51.088V56.72C162.565 56.7769 162.224 56.9191 161.769 57.1467C161.314 57.3742 160.773 57.6302 160.147 57.9147C159.578 58.1422 158.867 58.3413 158.014 58.512C157.218 58.6827 156.364 58.768 155.454 58.768C152.723 58.768 150.874 58.0569 149.907 56.6347C148.94 55.1556 148.684 52.6809 149.139 49.2107L151.443 33.5947H148.201L148.969 27.792H152.211L153.235 20.5387L161.342 19.2587L160.062 27.792H166.547Z" fill="#B5D6F5" />
    <path d="M178.685 38.7147C178.343 40.9902 178.173 42.9813 178.173 44.688C178.23 46.3947 178.514 47.8169 179.026 48.9547C179.538 50.0924 180.306 50.9458 181.33 51.5147C182.354 52.0836 183.691 52.368 185.341 52.368C186.763 52.368 188.071 52.1689 189.266 51.7707C190.518 51.3724 191.456 51.088 192.082 50.9173C192.139 51.9413 192.167 52.9653 192.167 53.9893C192.167 55.0133 192.224 56.0373 192.338 57.0613C192.054 57.1751 191.627 57.3173 191.058 57.488C190.546 57.6587 189.892 57.8293 189.095 58C188.356 58.2276 187.474 58.4267 186.45 58.5973C185.426 58.8249 184.288 58.9387 183.037 58.9387C177.746 58.9387 174.02 57.2889 171.858 53.9893C169.753 50.6898 169.184 45.5982 170.151 38.7147C171.118 31.7742 173.138 26.6827 176.21 23.44C179.282 20.1973 183.463 18.576 188.754 18.576C190.006 18.576 191.115 18.6613 192.082 18.832C193.049 19.0027 193.874 19.1733 194.557 19.344C195.296 19.5147 195.894 19.7138 196.349 19.9413C196.861 20.1689 197.23 20.3111 197.458 20.368L195.495 26.512C194.87 26.3413 193.988 26.0569 192.85 25.6587C191.769 25.2604 190.574 25.0613 189.266 25.0613C185.853 25.0613 183.378 26.1991 181.842 28.4747C180.306 30.6933 179.254 34.1067 178.685 38.7147ZM218.86 42.8107C219.372 39.2836 219.343 36.752 218.774 35.216C218.206 33.68 217.096 32.912 215.446 32.912C213.797 32.912 212.488 33.68 211.521 35.216C210.554 36.752 209.843 39.2836 209.388 42.8107C208.876 46.4516 208.876 49.0684 209.388 50.6613C209.9 52.1973 211.009 52.9653 212.716 52.9653C214.366 52.9653 215.674 52.1689 216.641 50.576C217.665 48.9831 218.405 46.3947 218.86 42.8107ZM227.052 42.8107C226.654 45.712 225.999 48.1582 225.089 50.1493C224.236 52.1404 223.155 53.7902 221.847 55.0987C220.538 56.4071 219.03 57.3458 217.324 57.9147C215.617 58.4836 213.797 58.768 211.863 58.768C209.928 58.768 208.193 58.4836 206.657 57.9147C205.121 57.2889 203.87 56.3502 202.902 55.0987C201.992 53.7902 201.366 52.1404 201.025 50.1493C200.684 48.1582 200.741 45.712 201.196 42.8107C201.537 40.0231 202.163 37.6338 203.073 35.6427C203.983 33.6516 205.093 32.0302 206.401 30.7787C207.71 29.5271 209.189 28.6169 210.839 28.048C212.488 27.4222 214.28 27.1093 216.215 27.1093C218.206 27.1093 219.969 27.4222 221.505 28.048C223.041 28.6169 224.293 29.5271 225.26 30.7787C226.227 32.0302 226.881 33.6516 227.222 35.6427C227.564 37.6338 227.507 40.0231 227.052 42.8107ZM247.86 42.8107C248.372 39.2836 248.343 36.752 247.774 35.216C247.206 33.68 246.096 32.912 244.446 32.912C242.797 32.912 241.488 33.68 240.521 35.216C239.554 36.752 238.843 39.2836 238.388 42.8107C237.876 46.4516 237.876 49.0684 238.388 50.6613C238.9 52.1973 240.009 52.9653 241.716 52.9653C243.366 52.9653 244.674 52.1689 245.641 50.576C246.665 48.9831 247.405 46.3947 247.86 42.8107ZM256.052 42.8107C255.654 45.712 254.999 48.1582 254.089 50.1493C253.236 52.1404 252.155 53.7902 250.847 55.0987C249.538 56.4071 248.03 57.3458 246.324 57.9147C244.617 58.4836 242.797 58.768 240.863 58.768C238.928 58.768 237.193 58.4836 235.657 57.9147C234.121 57.2889 232.87 56.3502 231.902 55.0987C230.992 53.7902 230.366 52.1404 230.025 50.1493C229.684 48.1582 229.741 45.712 230.196 42.8107C230.537 40.0231 231.163 37.6338 232.073 35.6427C232.983 33.6516 234.093 32.0302 235.401 30.7787C236.71 29.5271 238.189 28.6169 239.839 28.048C241.488 27.4222 243.28 27.1093 245.215 27.1093C247.206 27.1093 248.969 27.4222 250.505 28.048C252.041 28.6169 253.293 29.5271 254.26 30.7787C255.227 32.0302 255.881 33.6516 256.222 35.6427C256.564 37.6338 256.507 40.0231 256.052 42.8107ZM266.449 58H258.513L264.401 15.6747L272.508 14.5653L266.449 58Z" fill="#0085FF" />
    <path d="M255.571 63.8127C264.699 66.8317 284.531 66.9862 290.836 43.4524C292.828 58.1265 288.564 82.7424 255.571 63.8127Z" fill="#0085FF" />
    <circle cx="283.5" cy="32.5" r="6.5" fill="#0085FF" />
</svg>
